<?xml version="1.0" encoding="UTF-8"?>
<svg version="1.1" xmlns="http://www.w3.org/2000/svg" width="2025" height="355">
<path d="M0 0 C19.14 0 38.28 0 58 0 C58.33 42.9 58.66 85.8 59 130 C62.3 125.71 65.6 121.42 69 117 C91.33244525 94.66755475 119.66907978 86.43427354 150.54833984 85.9609375 C183.94622155 86.06821839 214.80993342 97.93520435 238.6875 121.25 C259.10658206 141.88510871 270.45577581 169.40177723 274 198 C274.12890625 198.9796875 274.2578125 199.959375 274.390625 200.96875 C278.39926631 238.52338967 271.06702787 279.01971672 247.32421875 309.171875 C246.55722656 310.10515625 245.79023437 311.0384375 245 312 C243.89591797 313.36898437 243.89591797 313.36898437 242.76953125 314.765625 C228.54711042 331.44183033 208.88571231 342.92299335 188 349 C187.2982666 349.21172852 186.5965332 349.42345703 185.87353516 349.64160156 C155.19287512 358.49570469 119.23981554 354.64487321 91.125 340.0625 C86.02074725 337.15224659 81.48141337 333.78897276 77 330 C75.7625 328.98099609 75.7625 328.98099609 74.5 327.94140625 C73.654375 327.21824219 72.80875 326.49507813 71.9375 325.75 C70.80634766 324.78320312 70.80634766 324.78320312 69.65234375 323.796875 C65.65428469 319.58095411 62.41739728 314.69892126 59 310 C58.67 323.53 58.34 337.06 58 351 C38.86 351 19.72 351 0 351 C0 235.17 0 119.34 0 0 Z M80 156 C60.1746679 177.9942051 56.87264322 204.44864571 58 233 C59.71465095 255.15792891 70.23716232 274.12508734 86.30078125 289.15234375 C102.35683155 302.84334573 123.3294226 308.26826777 144.140625 306.74609375 C164.77166628 304.79064894 182.70256324 295.53336589 196.53515625 280.1875 C213.1592684 259.20062772 219.1519318 232.58170434 216.29345703 206.22021484 C213.38187042 184.19195472 203.59610876 162.71105215 185.99609375 148.58984375 C153.40913324 124.52478584 108.8388652 127.01621588 80 156 Z " fill="#00ABFF" transform="translate(1265,0)"/>
<path d="M0 0 C1.22379112 -0.01052147 1.22379112 -0.01052147 2.4723053 -0.02125549 C5.09227076 -0.03866416 7.71201006 -0.0451082 10.33203125 -0.046875 C11.67569763 -0.04788712 11.67569763 -0.04788712 13.04650879 -0.04891968 C26.61156393 -0.03268192 39.82660263 0.39025114 53.14453125 3.203125 C53.96646973 3.37473145 54.7884082 3.54633789 55.63525391 3.72314453 C61.53676255 4.99825327 67.34731918 6.51893006 73.14453125 8.203125 C74.39435791 8.56615723 74.39435791 8.56615723 75.66943359 8.93652344 C94.12735355 14.43041495 116.15837144 21.67279771 131.14453125 34.203125 C132.18296426 36.6994892 132.26428586 37.84885346 131.39161682 40.43048096 C130.77539711 41.64293488 130.77539711 41.64293488 130.14672852 42.87988281 C129.68617569 43.80053528 129.22562286 44.72118774 128.75111389 45.66973877 C127.98872658 47.14806183 127.98872658 47.14806183 127.2109375 48.65625 C126.69901352 49.67160828 126.18708954 50.68696655 125.65965271 51.73309326 C124.01994004 54.97889869 122.36374639 58.2159703 120.70703125 61.453125 C119.59330638 63.65048718 118.48066228 65.84839751 117.36914062 68.046875 C114.64011921 73.43871788 111.89751462 78.82348089 109.14453125 84.203125 C104.21857924 84.203125 101.4814189 82.27252187 97.39453125 79.828125 C63.84968153 60.52811048 21.1295722 48.25543635 -17.44921875 57.01953125 C-23.80404201 58.79383354 -29.2063302 61.23758119 -34.734375 64.8359375 C-36.85546875 66.203125 -36.85546875 66.203125 -39.0078125 67.1328125 C-41.36274602 68.49698118 -41.82689618 69.7162651 -42.85546875 72.203125 C-43.36787109 73.193125 -43.36787109 73.193125 -43.890625 74.203125 C-44.39916016 75.193125 -44.39916016 75.193125 -44.91796875 76.203125 C-45.43037109 77.193125 -45.43037109 77.193125 -45.953125 78.203125 C-49.76433634 86.65048519 -49.02066652 99.38702561 -45.875 107.9765625 C-38.91781627 123.17041202 -23.74053922 131.06126081 -8.79302979 137.02615356 C-3.94759768 138.82249002 0.97070032 140.38801015 5.89453125 141.953125 C7.44730472 142.45777689 8.99962275 142.96383201 10.55151367 143.47119141 C13.7758647 144.52389204 17.00205658 145.5706121 20.22998047 146.61230469 C27.5476131 148.97670655 34.84915724 151.38943094 42.14733887 153.81311035 C44.38090504 154.55291053 46.61654214 155.28614019 48.85253906 156.01855469 C60.93712603 160.00145274 72.97211719 164.29745951 84.33203125 170.078125 C84.99364258 170.41416748 85.65525391 170.75020996 86.33691406 171.09643555 C107.35325465 181.98768979 125.11590306 198.48415865 132.86474609 221.32617188 C140.31370638 246.08351567 139.03257413 274.03409508 127.171875 297.2265625 C112.78928041 323.40521786 86.47125109 339.31754197 58.5 347.76953125 C22.73098511 357.78220831 -16.36881881 356.80676286 -51.85546875 346.203125 C-52.64808105 345.9664209 -53.44069336 345.7297168 -54.25732422 345.48583984 C-80.92609601 337.28880408 -105.29155148 323.80505858 -127.11425781 306.55615234 C-128.27765648 305.65212046 -129.46826612 304.78209292 -130.68261719 303.94775391 C-132.37890625 302.72265625 -132.37890625 302.72265625 -134.85546875 300.203125 C-134.65000887 294.94412372 -132.39925035 290.82984764 -129.99609375 286.27734375 C-129.60983826 285.53031693 -129.22358276 284.7832901 -128.82562256 284.0136261 C-127.59326736 281.63520166 -126.34943588 279.26299288 -125.10546875 276.890625 C-124.2844268 275.308321 -123.46410729 273.72564191 -122.64453125 272.14257812 C-118.81874427 264.77002817 -114.94819615 257.43194636 -110.85546875 250.203125 C-106.96921918 252.04326469 -103.80873012 254.51288819 -100.48046875 257.203125 C-65.83665389 284.68908946 -23.84016296 304.12523865 21.33203125 299.515625 C37.59582182 297.58485508 52.68711737 292.49108529 63.48828125 279.54296875 C70.52290125 269.60490889 71.56894036 258.13586008 69.68359375 246.3125 C66.33108316 233.77016627 57.2899776 224.58992807 46.4453125 218.015625 C28.20128731 207.99760407 8.20790168 202.49101172 -11.69946289 196.79467773 C-39.80133801 188.75311338 -67.34399522 179.59009635 -89.85546875 160.203125 C-90.54382813 159.61144531 -91.2321875 159.01976562 -91.94140625 158.41015625 C-105.82031272 145.54611053 -113.97068048 126.68691979 -115.04003906 107.97314453 C-116.04700822 81.42610501 -112.87123589 59.61837204 -94.85546875 39.203125 C-94.09234375 38.1925 -93.32921875 37.181875 -92.54296875 36.140625 C-69.86369434 11.35165064 -32.89048397 0.1905676 0 0 Z " fill="#000000" transform="translate(134.85546875,0.796875)"/>
<path d="M0 0 C19.35301305 19.47653174 28.28422567 46.5725748 31.8125 73.3125 C31.90821289 73.9818457 32.00392578 74.65119141 32.10253906 75.34082031 C33.118032 83.5903548 32.96320035 91.89491816 32.94287109 100.19238281 C32.93745584 102.83404123 32.94287097 105.47553388 32.94921875 108.1171875 C32.9485589 109.79687538 32.94727969 111.47656315 32.9453125 113.15625 C32.94733673 113.9457605 32.94936096 114.735271 32.95144653 115.54870605 C32.92749765 121.0825047 32.92749765 121.0825047 31.8125 123.3125 C-33.5275 123.3125 -98.8675 123.3125 -166.1875 123.3125 C-157.47540086 149.44879743 -147.76939296 168.6860357 -123.04296875 181.41210938 C-100.32890662 192.43440689 -73.68748306 191.8742205 -50.05859375 183.9921875 C-35.77143325 178.82828374 -22.78078957 170.17002128 -12.1875 159.3125 C-9.37780533 160.59272875 -7.3335762 161.91964129 -5.16308594 164.10986328 C-4.60280701 164.67029327 -4.04252808 165.23072327 -3.465271 165.80813599 C-2.87345032 166.41027924 -2.28162964 167.01242249 -1.671875 167.6328125 C-1.05604553 168.25147186 -0.44021606 168.87013123 0.1942749 169.50753784 C2.15510336 171.47953814 4.10885301 173.45838737 6.0625 175.4375 C7.39276799 176.77780164 8.723492 178.11765083 10.0546875 179.45703125 C13.3126015 182.73696589 16.56418533 186.02305942 19.8125 189.3125 C18.86497035 190.42762859 17.91604996 191.54157556 16.96655273 192.6550293 C16.43827377 193.2754863 15.90999481 193.8959433 15.3657074 194.53520203 C0.72040929 211.2934654 -20.19495306 222.19252252 -41.1875 228.6875 C-42.26874146 229.0273291 -42.26874146 229.0273291 -43.37182617 229.37402344 C-58.4452048 233.7185014 -73.89280104 234.87005686 -89.5 234.75 C-90.34646088 234.74695862 -91.19292175 234.74391724 -92.06503296 234.74078369 C-105.43108195 234.67001976 -118.2400836 233.88618409 -131.1875 230.3125 C-132.35732422 229.99901611 -132.35732422 229.99901611 -133.55078125 229.67919922 C-164.12351594 221.21846107 -191.34695558 200.93094026 -207.1875 173.3125 C-213.48274654 161.86971841 -218.32026996 150.06148481 -221.1875 137.3125 C-221.34976074 136.59674805 -221.51202148 135.88099609 -221.67919922 135.14355469 C-226.32992915 113.38255419 -226.39149025 87.94308195 -221.1875 66.3125 C-221.00477539 65.52584961 -220.82205078 64.73919922 -220.63378906 63.92871094 C-216.15595345 45.34826662 -207.58303211 27.90723942 -195.1875 13.3125 C-194.07761719 11.99572266 -194.07761719 11.99572266 -192.9453125 10.65234375 C-169.22318419 -16.55833284 -135.59583526 -29.64643993 -100.125 -32.5 C-63.03266924 -34.051822 -27.2628128 -26.47316646 0 0 Z M-138.1875 27.3125 C-139.34378906 28.22322266 -139.34378906 28.22322266 -140.5234375 29.15234375 C-154.91724715 41.16356033 -163.70855499 59.0938143 -167.1875 77.3125 C-167.1875 78.6325 -167.1875 79.9525 -167.1875 81.3125 C-118.0175 81.3125 -68.8475 81.3125 -18.1875 81.3125 C-19.83766779 61.51048647 -24.61450998 45.26204659 -39.1875 31.3125 C-39.77660156 30.69246094 -40.36570312 30.07242188 -40.97265625 29.43359375 C-49.58712096 20.97059216 -62.47732071 15.59052523 -74.1875 13.3125 C-75.07179688 13.13074219 -75.95609375 12.94898438 -76.8671875 12.76171875 C-98.41257959 9.84675394 -120.94208525 13.49886511 -138.1875 27.3125 Z " fill="#00ABFF" transform="translate(1992.1875,118.6875)"/>
<path d="M0 0 C19.14 0 38.28 0 58 0 C58.0093457 4.78814209 58.01869141 9.57628418 58.02832031 14.50952148 C58.06216423 30.37128291 58.1175559 46.23291585 58.18390274 62.09457302 C58.22358744 71.70668732 58.25603334 81.318721 58.27099609 90.9309082 C58.2840677 99.31609493 58.31117156 107.70110348 58.35461307 116.08618981 C58.37710489 120.51952723 58.39291813 124.95264592 58.39188385 129.38604546 C58.39112989 133.57307799 58.40937064 137.75962926 58.44116783 141.94653702 C58.44957145 143.46969081 58.45148309 144.99289921 58.44580269 146.5160656 C58.38489488 165.38589303 62.07928963 183.71429156 75.59765625 197.75 C88.78900409 210.10482334 104.40919856 213.55545407 121.97265625 213.2734375 C140.40885467 212.56394768 156.54747265 204.38182043 169 191 C184.41179144 172.71681015 189.2792391 149.89861886 189.31884766 126.58081055 C189.32817364 125.18974238 189.33834614 123.79867968 189.34928894 122.40762329 C189.37630269 118.67505254 189.39165206 114.9425189 189.40471697 111.20987678 C189.42047458 107.29277331 189.44722365 103.37574427 189.4727478 99.45869446 C189.5193141 92.06076011 189.55616451 84.66281142 189.58942068 77.26480657 C189.62779975 68.8341476 189.6771679 60.4035638 189.72740483 51.97296846 C189.83039479 34.64869477 189.91831094 17.32438921 190 0 C209.14 0 228.28 0 248 0 C248 86.79 248 173.58 248 263 C228.86 263 209.72 263 190 263 C189.67 247.82 189.34 232.64 189 217 C185.535 222.445 185.535 222.445 182 228 C179.18850501 231.52349697 176.11580692 234.74459599 173 238 C172.13761719 238.95712891 172.13761719 238.95712891 171.2578125 239.93359375 C161.33113373 250.59646162 147.22004538 256.61201203 133.5 260.75 C132.52329346 261.04801514 132.52329346 261.04801514 131.52685547 261.35205078 C120.06203864 264.62570903 108.5603037 265.36374846 96.6875 265.3125 C96.0064621 265.31034485 95.32542419 265.3081897 94.62374878 265.30596924 C67.58519504 265.16877607 45.12558528 257.42089563 25.3125 238.625 C-1.11459681 211.02473768 -0.46747063 173.14797922 -0.30418181 137.53313613 C-0.28520654 132.68456416 -0.28364838 127.83598436 -0.28010559 122.98738098 C-0.27084554 113.8400834 -0.24631512 104.69289562 -0.21605712 95.54564601 C-0.18232305 85.11731978 -0.16597971 74.68898783 -0.15097082 64.26062047 C-0.11975891 42.84033908 -0.06482409 21.42020786 0 0 Z " fill="#000000" transform="translate(528,88)"/>
<path d="M0 0 C19.47 0 38.94 0 59 0 C59 97.68 59 195.36 59 296 C108.5 296 158 296 209 296 C209 312.5 209 329 209 346 C140.03 346 71.06 346 0 346 C0 231.82 0 117.64 0 0 Z " fill="#00ABFF" transform="translate(862,5)"/>
<path d="M0 0 C18.81 0 37.62 0 57 0 C57 23.76 57 47.52 57 72 C82.74 72 108.48 72 135 72 C135 85.53 135 99.06 135 113 C109.26 113 83.52 113 57 113 C57.1198104 137.25884899 57.1198104 137.25884899 57.2578125 161.51757812 C57.31815475 171.41509898 57.3765239 181.31260266 57.421875 191.21020508 C57.45491827 198.41968251 57.49481668 205.62908465 57.54279006 212.83847874 C57.56793303 216.65229286 57.5897496 220.46605781 57.60334396 224.27993202 C57.61627602 227.87751475 57.63844751 231.47492783 57.66738319 235.07241631 C57.68062439 237.00615015 57.68435879 238.93994197 57.68769836 240.87371826 C57.78100564 250.70532516 57.95406318 261.73847143 64 270 C69.84404705 275.69867274 76.44401498 277.09404985 84.4375 277.375 C97.44847367 277.14069221 108.60516875 273.16640985 120.0859375 267.390625 C123 266 123 266 125 266 C127.04978133 271.61656804 129.07964721 277.23978311 131.09130859 282.87011719 C131.77857052 284.78484126 132.47125491 286.69762797 133.16943359 288.60839844 C134.17152608 291.35381824 135.15397165 294.10559329 136.1328125 296.859375 C136.44936798 297.71368103 136.76592346 298.56798706 137.09207153 299.44818115 C137.37251312 300.24870911 137.65295471 301.04923706 137.94189453 301.87402344 C138.32161911 302.92659332 138.32161911 302.92659332 138.70901489 304.00042725 C139.09608095 306.66024287 138.49456572 307.79771378 137 310 C134.60788271 311.45709734 132.33240748 312.68702676 129.8125 313.875 C129.09852051 314.21942139 128.38454102 314.56384277 127.64892578 314.91870117 C101.26909866 327.4690333 72.93773442 332.6152142 44.5078125 323.93359375 C28.2893019 318.15217174 14.81642982 307.55310015 7 292 C1.33797919 278.08588504 -0.3071661 264.66295977 -0.22705078 249.68457031 C-0.22648527 248.18528247 -0.22680595 246.68599407 -0.22793579 245.18670654 C-0.22850486 241.15443819 -0.21682353 237.1222911 -0.20278788 233.0900507 C-0.19020546 228.86202182 -0.18910414 224.63398954 -0.18673706 220.40594482 C-0.18054422 212.4164757 -0.1641634 204.42706192 -0.14403808 196.43761706 C-0.12161038 187.33473864 -0.11066844 178.23185744 -0.10064721 169.12895823 C-0.079795 150.41926782 -0.04314651 131.70965319 0 113 C-12.21 113 -24.42 113 -37 113 C-37 99.47 -37 85.94 -37 72 C-24.79 72 -12.58 72 0 72 C0 48.24 0 24.48 0 0 Z " fill="#000000" transform="translate(346,26)"/>
<path d="M0 0 C0 17.49 0 34.98 0 53 C-9.9 53.495 -9.9 53.495 -20 54 C-41.22486774 57.44677339 -60.80900226 66.70196081 -74.125 84.125 C-83.72657028 98.01093631 -90.05101718 113.97616252 -90.15821838 131.03646851 C-90.17290161 132.81581284 -90.17290161 132.81581284 -90.18788147 134.63110352 C-90.19363693 135.91863525 -90.1993924 137.20616699 -90.20532227 138.53271484 C-90.21491049 139.91289558 -90.22492111 141.29307343 -90.23532104 142.67324829 C-90.26227393 146.40829258 -90.28333532 150.14334938 -90.30332303 153.87843657 C-90.32524215 157.78621906 -90.35260176 161.69396341 -90.37937927 165.60171509 C-90.42922622 172.99634834 -90.47419461 180.39100285 -90.51740164 187.78567755 C-90.56684251 196.20647971 -90.62173517 204.62724359 -90.67708123 213.04800868 C-90.79077845 230.36530505 -90.8969244 247.68263665 -91 265 C-110.14 265 -129.28 265 -149 265 C-149.02202622 231.63976952 -149.04049775 198.27954607 -149.05106533 164.91931051 C-149.05231611 160.98502536 -149.05361042 157.05074021 -149.05493164 153.11645508 C-149.05519395 152.33317632 -149.05545626 151.54989756 -149.05572652 150.74288308 C-149.0600834 138.04329829 -149.06797104 125.34371801 -149.0771528 112.6441359 C-149.08648885 99.62299846 -149.09205551 86.6018634 -149.09408849 73.58072275 C-149.09546382 65.5394466 -149.09981495 57.49818319 -149.10791647 49.45691096 C-149.11380398 43.30136681 -149.11445909 37.14583246 -149.11310768 30.99028587 C-149.11338422 28.45737759 -149.11539204 25.92446885 -149.11920547 23.39156342 C-149.12413557 19.94995331 -149.12300083 16.50839895 -149.12025452 13.06678772 C-149.12462378 11.5420143 -149.12462378 11.5420143 -149.12908131 9.98643738 C-149.12709026 9.07179669 -149.12509921 8.157156 -149.12304783 7.21479893 C-149.12342755 6.41928484 -149.12380727 5.62377074 -149.1241985 4.80415016 C-149 3 -149 3 -148 2 C-146.22008076 1.90629376 -144.43643261 1.88255729 -142.65405273 1.88647461 C-140.94239174 1.88658791 -140.94239174 1.88658791 -139.19615173 1.88670349 C-137.9545076 1.89186478 -136.71286346 1.89702606 -135.43359375 1.90234375 C-133.53795433 1.90446617 -133.53795433 1.90446617 -131.60401917 1.90663147 C-128.23875111 1.91129418 -124.8735501 1.9202852 -121.50830078 1.93133545 C-118.07650341 1.94155154 -114.64469892 1.94618422 -111.21289062 1.95117188 C-104.47522246 1.96137737 -97.73767229 1.98094909 -91 2 C-90.67 17.84 -90.34 33.68 -90 50 C-86.535 44.555 -86.535 44.555 -83 39 C-65.48378004 17.4131092 -42.46224451 3.98734667 -14.7734375 0.73876953 C-9.85932335 0.27972258 -4.93699968 0 0 0 Z " fill="#00ABFF" transform="translate(1746,86)"/>
<path d="M0 0 C18.81 0 37.62 0 57 0 C57 86.79 57 173.58 57 263 C37.86 263 18.72 263 -1 263 C-1.02202622 229.63976952 -1.04049775 196.27954607 -1.05106533 162.91931051 C-1.05231611 158.98502536 -1.05361042 155.05074021 -1.05493164 151.11645508 C-1.05519395 150.33317632 -1.05545626 149.54989756 -1.05572652 148.74288308 C-1.0600834 136.04329829 -1.06797104 123.34371801 -1.0771528 110.6441359 C-1.08648885 97.62299846 -1.09205551 84.6018634 -1.09408849 71.58072275 C-1.09546382 63.5394466 -1.09981495 55.49818319 -1.10791647 47.45691096 C-1.11380398 41.30136681 -1.11445909 35.14583246 -1.11310768 28.99028587 C-1.11338422 26.45737759 -1.11539204 23.92446885 -1.11920547 21.39156342 C-1.12413557 17.94995331 -1.12300083 14.50839895 -1.12025452 11.06678772 C-1.12462378 9.5420143 -1.12462378 9.5420143 -1.12908131 7.98643738 C-1.12709026 7.07179669 -1.12509921 6.157156 -1.12304783 5.21479893 C-1.12342755 4.41928484 -1.12380727 3.62377074 -1.1241985 2.80415016 C-1 1 -1 1 0 0 Z " fill="#00ABFF" transform="translate(1122,88)"/>
<path d="M0 0 C20.46 0 40.92 0 62 0 C66.12705643 8.25411287 65.62397887 17.49166223 63.0703125 26.2109375 C59.85382179 34.59259577 54.45006595 40.95882447 46.27416992 44.8137207 C41.15341544 46.94932176 36.58131467 47.51103713 31.0625 47.4375 C30.27125732 47.43065186 29.48001465 47.42380371 28.66479492 47.41674805 C22.6918844 47.25232212 18.06162433 46.31623663 13 43 C12.071875 42.4740625 12.071875 42.4740625 11.125 41.9375 C4.2907653 37.69556122 -0.01210381 30.69508202 -2 23 C-2.27121692 19.97336098 -2.27989639 16.97447484 -2.25 13.9375 C-2.25773437 13.14794922 -2.26546875 12.35839844 -2.2734375 11.54492188 C-2.27085938 10.77599609 -2.26828125 10.00707031 -2.265625 9.21484375 C-2.26336914 8.52511475 -2.26111328 7.83538574 -2.25878906 7.12475586 C-2 5 -2 5 0 0 Z " fill="#00ABFF" transform="translate(1119,0)"/>
</svg>
